<svg width="35" height="27" viewBox="0 0 35 27" fill="none" xmlns="http://www.w3.org/2000/svg">
<g clip-path="url(#clip0_401_2)">
<path d="M33 0.5H2C1.17157 0.5 0.5 1.17157 0.5 2V25C0.5 25.8284 1.17157 26.5 2 26.5H33C33.8284 26.5 34.5 25.8284 34.5 25V2C34.5 1.17157 33.8284 0.5 33 0.5Z" stroke="black" stroke-opacity="0.26"/>
<path d="M10.5303 21.8636C10.1276 21.8636 9.7946 21.7303 9.5313 21.4638C9.268 21.1972 9.13635 20.86 9.13635 20.4523V8.33864C9.13635 7.93091 9.268 7.59375 9.5313 7.32716C9.7946 7.06057 10.1276 6.92727 10.5303 6.92727H15.2232C15.3316 6.37841 15.5988 5.92756 16.0247 5.57472C16.4507 5.22187 16.9424 5.04545 17.5 5.04545C18.0576 5.04545 18.5493 5.22187 18.9752 5.57472C19.4012 5.92756 19.6683 6.37841 19.7768 6.92727H24.4697C24.8724 6.92727 25.2054 7.06057 25.4687 7.32716C25.732 7.59375 25.8636 7.93091 25.8636 8.33864V20.4523C25.8636 20.86 25.732 21.1972 25.4687 21.4638C25.2054 21.7303 24.8724 21.8636 24.4697 21.8636H10.5303ZM10.5303 20.4523H24.4697V8.33864H23.0757V10.4557H11.9242V8.33864H10.5303V20.4523ZM17.5 8.33864C17.7633 8.33864 17.984 8.24847 18.1621 8.06813C18.3402 7.88778 18.4293 7.66432 18.4293 7.39773C18.4293 7.13114 18.3402 6.90767 18.1621 6.72733C17.984 6.54699 17.7633 6.45682 17.5 6.45682C17.2367 6.45682 17.016 6.54699 16.8379 6.72733C16.6598 6.90767 16.5707 7.13114 16.5707 7.39773C16.5707 7.66432 16.6598 7.88778 16.8379 8.06813C17.016 8.24847 17.2367 8.33864 17.5 8.33864Z" fill="black"/>
<path d="M19.1959 19.1H12.2727V17.6886H19.1959V19.1Z" fill="black"/>
<path d="M22.7273 16.1466H12.2727V14.7352H22.7273V16.1466Z" fill="black"/>
<path d="M22.7273 13.1932H12.2727V11.7818H22.7273V13.1932Z" fill="black"/>
</g>
<defs>
<clipPath id="clip0_401_2">
<rect width="35" height="27" fill="white"/>
</clipPath>
</defs>
</svg>
